<svg version="1.0" xmlns="http://www.w3.org/2000/svg"
 width="1240.000000pt" height="1240.000000pt" viewBox="0 0 1240.000000 1240.000000"
 preserveAspectRatio="xMidYMid meet">

<g transform="translate(0.000000,1240.000000) scale(0.100000,-0.100000)"
fill="#000000" stroke="none">
<path d="M5800 11639 c-1139 -85 -2220 -524 -3101 -1260 -160 -134 -469 -438
-611 -600 -1020 -1175 -1489 -2710 -1298 -4254 117 -946 480 -1842 1054 -2603
957 -1267 2382 -2044 3966 -2162 175 -13 621 -13 786 0 1329 105 2529 654
3459 1585 931 930 1480 2130 1585 3459 13 165 13 611 0 786 -118 1584 -895
3009 -2162 3966 -841 635 -1836 1006 -2903 1084 -163 12 -609 11 -775 -1z
m875 -484 c1602 -155 3019 -1063 3832 -2456 656 -1125 841 -2479 512 -3756
-268 -1042 -896 -1998 -1752 -2666 -1071 -836 -2425 -1197 -3772 -1006 -1412
200 -2676 1005 -3459 2201 -456 698 -717 1454 -797 2308 -16 174 -17 666 0
840 61 660 227 1245 515 1815 275 543 592 967 1049 1401 579 551 1356 979
2149 1184 329 84 605 126 1028 154 113 8 541 -4 695 -19z"/>
<path d="M5745 9744 c-621 -36 -1153 -110 -1623 -225 -159 -39 -402 -111 -432
-129 -8 -5 -47 -24 -86 -43 -104 -51 -288 -174 -380 -253 -43 -38 -91 -77
-106 -87 -18 -11 -28 -26 -28 -42 l0 -25 143 0 c117 0 1858 33 2817 54 136 3
224 2 210 -3 -15 -6 63 -9 205 -10 127 -1 277 -5 335 -11 58 -5 191 -14 295
-20 324 -18 551 -45 700 -82 367 -91 580 -348 522 -631 -19 -95 -49 -161 -123
-274 -179 -276 -613 -706 -1112 -1105 -320 -257 -732 -558 -761 -558 -11 0
-40 17 -64 38 -24 21 -183 153 -353 294 -508 420 -714 610 -919 848 -173 201
-228 280 -292 419 -24 53 -60 128 -79 166 -32 64 -34 77 -34 160 1 127 28 180
123 239 83 52 97 61 97 68 0 4 -89 6 -197 4 -181 -3 -205 -6 -279 -30 -223
-72 -347 -236 -346 -455 1 -131 45 -243 169 -431 100 -151 179 -247 332 -404
252 -258 472 -443 1103 -929 163 -125 301 -234 309 -243 10 -12 9 -18 -7 -34
-57 -55 -1177 -669 -1729 -948 -503 -254 -666 -375 -771 -575 -43 -81 -152
-418 -188 -577 -44 -201 -90 -520 -74 -520 3 0 408 244 899 541 701 425 1021
626 1484 932 325 214 604 398 620 407 17 9 88 62 158 116 181 140 187 144 216
144 16 0 46 -16 76 -41 28 -23 122 -96 210 -162 475 -358 836 -667 1125 -963
80 -82 164 -174 188 -205 69 -92 138 -213 173 -307 29 -78 32 -98 33 -197 1
-106 0 -113 -32 -178 -83 -169 -310 -333 -591 -426 -188 -63 -509 -111 -874
-131 -693 -38 -1429 139 -1830 441 -59 44 -125 102 -145 129 -107 138 -136
186 -154 249 -22 79 -23 191 -2 246 29 77 30 75 -7 75 -48 0 -135 -47 -194
-105 -92 -89 -135 -213 -135 -384 1 -207 94 -400 280 -575 167 -157 377 -266
740 -384 400 -130 751 -189 1190 -199 433 -10 828 34 1235 137 292 74 488 170
673 329 149 129 268 313 313 486 28 106 30 294 5 415 -66 308 -226 542 -668
976 -280 274 -407 384 -1062 921 -93 76 -174 146 -180 156 -13 22 -35 1 325
308 473 404 953 842 1184 1081 361 373 557 703 606 1022 16 102 6 313 -20 409
-106 401 -415 680 -960 868 -287 99 -650 163 -1186 209 -123 11 -942 21 -1070
14z"/>
<path d="M4940 4459 c-22 -18 -22 -19 -3 -10 12 6 25 16 28 21 9 15 3 12 -25
-11z"/>
</g>
</svg>
